<svg xmlns="http://www.w3.org/2000/svg" width="256" height="256" viewBox="0 0 100 100"><rect width="100" height="100" rx="0" fill="#000000"></rect><path fill="#fff" d="M25.03 53.55L25.03 53.55Q20.53 59.77 12.97 59.77L12.97 59.77Q6.85 59.77 3.20 57.20Q-0.44 54.63-0.44 49.05L-0.44 49.05Q-0.44 46.72 0.23 44.73Q0.91 42.75 2.44 39.88L2.44 39.88L5.05 18.55Q7.84 16.39 12.61 16.39L12.61 16.39Q16.66 16.39 17.20 21.79L17.20 21.79Q17.38 23.41 17.38 25.61Q17.38 27.81 16.66 30.25L16.66 30.25Q13.06 42.66 13.15 46.90L13.15 46.90Q13.15 50.13 16.93 50.13Q20.71 50.13 22.51 47.70Q24.31 45.27 25.57 41.67L25.57 41.67Q27.91 31.69 29.93 25.20Q31.96 18.73 32.49 17.47L32.49 17.47Q33.40 15.30 35.91 15.22L35.91 15.22Q38.44 15.30 40.69 18.77Q42.94 22.23 42.94 24.13L42.94 24.13Q42.76 30.43 35.11 55.90L35.11 55.90Q40.95 51.30 46.72 44.65L46.72 44.65Q48.70 42.30 50.05 40.73Q51.40 39.16 52.20 39.16L52.20 39.16Q53.47 39.16 53.47 42.03L53.47 42.03Q53.47 47.70 47.12 55.27Q40.77 62.83 31.60 67.06L31.60 67.06Q30.52 70.66 29.26 73.89Q28.00 77.13 26.02 79.56L26.02 79.56Q21.70 84.78 12.88 84.78L12.88 84.78Q6.94 84.78 2.75 81.36Q-1.43 77.94-1.43 72.81L-1.43 72.81Q-1.43 69.94 0.50 68.22Q2.44 66.52 5.81 65.39Q9.19 64.27 13.69 63.41Q18.19 62.55 23.32 61.30L23.32 61.30Q24.58 55.90 25.03 53.55ZM12.79 77.86L12.79 77.86Q17.02 77.86 20.44 70.47L20.44 70.47Q17.20 71.11 14.68 71.42Q12.16 71.73 10.36 72.00L10.36 72.00Q6.76 72.55 6.85 73.89L6.85 73.89Q6.85 75.61 8.87 76.78Q10.90 77.94 12.79 77.86ZM76.95 23.77L76.95 22.15Q76.95 16.12 86.31 16.12L86.31 16.12Q88.66 16.12 89.24 17.65Q89.82 19.18 89.82 22.33L89.82 22.33Q89.82 26.73 87.84 36.01Q85.87 45.27 85.95 48.52L85.95 48.52Q85.95 50.05 86.94 50.05L86.94 50.05Q88.30 50.05 90.28 48.34Q92.25 46.63 94.23 44.60Q96.22 42.58 97.88 40.87Q99.55 39.16 100.17 39.16L100.17 39.16Q101.44 39.16 101.44 42.22L101.44 42.22Q101.44 48.52 95.22 54.37L95.22 54.37Q84.78 60.48 82.00 60.48L82.00 60.48Q81.72 60.48 81.55 60.40L81.55 60.40Q78.13 60.40 76.73 58.15Q75.34 55.90 74.97 52.48L74.97 52.48Q73.17 55.80 70.03 58.19Q66.88 60.58 62.83 60.58L62.83 60.58Q55.72 60.58 51.89 57.88Q48.06 55.17 48.06 49.87L48.06 49.87Q48.06 47.52 48.74 45.55Q49.41 43.56 50.95 40.69L50.95 40.69L53.55 18.55Q56.34 16.39 61.56 16.39L61.56 16.39Q65.70 16.39 66.25 21.79L66.25 21.79Q66.69 26.20 65.84 29.66Q64.98 33.13 63.55 38.39Q62.11 43.66 62.11 47.70L62.11 47.70Q62.11 50.95 66.16 50.95L66.16 50.95Q70.56 50.95 73.81 43.20L73.81 43.20Q76.33 37.27 77.22 29.98L77.22 29.98Q77.13 29.26 77.09 28.13Q77.05 27.01 77 25.93Q76.95 24.84 76.95 23.77L76.95 23.77Z"></path></svg>